<svg xmlns="http://www.w3.org/2000/svg" width="1200" height="760" viewBox="0 0 1200 760">
  <rect width="1200" height="760" fill="white"/>
  <style>.o{fill:white;stroke:#111;stroke-width:2}.t{font:700 24px Arial;fill:#111}.s{font:16px Arial;fill:#333}.d{stroke:#777;stroke-width:1.5;stroke-dasharray:7 6;fill:none}</style>
  <text x="600" y="42" text-anchor="middle" class="t">MedSystem — Conceptual 2D Product Layout</text>
  <text x="600" y="70" text-anchor="middle" class="s">Concept drawing only — final dimensions must come from the physical prototype</text>

  <text x="270" y="120" text-anchor="middle" class="t">Front View</text>
  <rect class="o" x="90" y="145" rx="26" ry="26" width="360" height="500"/>
  <rect class="o" x="135" y="205" rx="12" ry="12" width="270" height="160"/>
  <text x="270" y="290" text-anchor="middle" class="s">Touch Display</text>
  <circle class="o" cx="380" cy="175" r="12"/><text x="345" y="180" class="s">Status</text>
  <rect class="o" x="150" y="420" rx="20" ry="20" width="240" height="85"/>
  <text x="270" y="468" text-anchor="middle" class="s">Pill Collection Outlet</text>
  <rect class="o" x="205" y="555" rx="12" ry="12" width="130" height="45"/>
  <text x="270" y="583" text-anchor="middle" class="s">Power Control</text>
  <text x="270" y="185" text-anchor="middle" class="t">MedSystem</text>

  <text x="830" y="120" text-anchor="middle" class="t">Internal Layout Concept</text>
  <rect class="o" x="610" y="145" rx="26" ry="26" width="440" height="500"/>
  <rect class="o" x="645" y="185" width="180" height="95"/>
  <text x="735" y="225" text-anchor="middle" class="s">Raspberry Pi</text><text x="735" y="250" text-anchor="middle" class="s">+ controller electronics</text>
  <rect class="o" x="850" y="185" width="160" height="95"/>
  <text x="930" y="225" text-anchor="middle" class="s">Camera /</text><text x="930" y="250" text-anchor="middle" class="s">verification area</text>

  <rect class="o" x="650" y="330" width="105" height="105"/><text x="702" y="375" text-anchor="middle" class="s">Comp. 1</text><text x="702" y="400" text-anchor="middle" class="s">Motor + IR</text>
  <rect class="o" x="777" y="330" width="105" height="105"/><text x="829" y="375" text-anchor="middle" class="s">Comp. 3</text><text x="829" y="400" text-anchor="middle" class="s">Motor + IR</text>
  <rect class="o" x="904" y="330" width="105" height="105"/><text x="956" y="375" text-anchor="middle" class="s">Comp. 5</text><text x="956" y="400" text-anchor="middle" class="s">Motor + IR</text>

  <rect class="o" x="650" y="485" width="165" height="90"/><text x="732" y="525" text-anchor="middle" class="s">Power section</text><text x="732" y="550" text-anchor="middle" class="s">5 V high-current path</text>
  <rect class="o" x="845" y="485" width="165" height="90"/><text x="927" y="525" text-anchor="middle" class="s">DS3231 RTC</text><text x="927" y="550" text-anchor="middle" class="s">+ service access</text>

  <path class="d" d="M610 310 H1050"/><text x="830" y="302" text-anchor="middle" class="s">Medication/mechanism zone</text>
  <path class="d" d="M610 460 H1050"/><text x="830" y="452" text-anchor="middle" class="s">Power/service zone</text>
</svg>